<?xml version="1.0" standalone="no"?>
<!DOCTYPE svg PUBLIC "-//W3C//DTD SVG 20010904//EN"
 "http://www.w3.org/TR/2001/REC-SVG-20010904/DTD/svg10.dtd">
<svg version="1.0" xmlns="http://www.w3.org/2000/svg"
 width="146.000000pt" height="146.000000pt" viewBox="0 0 146.000000 146.000000"
 preserveAspectRatio="xMidYMid meet">
<metadata>
Created by potrace 1.11, written by Peter Selinger 2001-2013
</metadata>
<g transform="translate(0.000000,146.000000) scale(0.100000,-0.100000)"
fill="#000000" stroke="none">
<path d="M240 730 l0 -730 164 0 163 0 6 43 c23 172 114 332 258 450 25 20 50
37 55 37 5 0 8 -114 7 -265 l-2 -265 164 0 165 0 0 730 0 730 -490 0 -490 0 0
-730z m573 591 l77 -130 1 -188 1 -188 -158 -3 c-90 -1 -160 1 -163 7 -3 5 -6
90 -5 189 l0 179 79 132 c43 72 81 131 84 131 4 0 41 -58 84 -129z"/>
</g>
</svg>
